<svg xmlns="http://www.w3.org/2000/svg" xmlns:xlink="http://www.w3.org/1999/xlink" viewBox="0 0 23 19" version="1.1">
  <path d="M20.645472,4.65492896 C20.6554955,4.85740434 20.6595049,5.05887736 20.6595049,5.2643598 C20.6595049,11.5 15.9133618,18.6898806 7.23398414,18.6898806 C4.56772422,18.6898806 2.08890438,17.9090473 0,16.5699033 C0.37087074,16.6120021 0.745750893,16.6350562 1.12564281,16.6350562 C3.33883901,16.6350562 5.37060926,15.8822889 6.98540051,14.6163166 C4.92155496,14.5772248 3.17846248,13.2120195 2.57905517,11.3396235 C2.86673058,11.3927482 3.16142247,11.4238211 3.46613789,11.4238211 C3.89714983,11.4238211 4.31412882,11.3646823 4.70805369,11.2584328 C2.55199163,10.8234115 0.92416979,8.91693541 0.92416979,6.63156977 L0.92416979,6.57243092 C1.56066417,6.92626166 2.2883727,7.13675586 3.06218949,7.1618147 C1.79521485,6.31683082 0.963261571,4.87143729 0.963261571,3.23459426 C0.963261571,2.36956332 1.19580755,1.55865946 1.60176066,0.862023882 C3.92822278,3.71772858 7.40638891,5.59513641 11.3275952,5.79159766 C11.247407,5.44678811 11.2053081,5.08694326 11.2053081,4.71707487 C11.2053081,2.11095616 13.318269,-3.41060513e-13 15.9243877,-3.41060513e-13 C17.2805718,-3.41060513e-13 18.5074523,0.572343764 19.3684738,1.48849473 C20.4419942,1.27699817 21.4523664,0.884075656 22.3655103,0.342804846 C22.0116796,1.44639589 21.2649263,2.36956332 20.2906389,2.95393533 C21.2448793,2.84167175 22.1550161,2.58607165 23,2.21219385 C22.367515,3.15841541 21.5676371,3.98936634 20.645472,4.65492896" fill="#999999" />
</svg>
