<svg xmlns="http://www.w3.org/2000/svg" xmlns:xlink="http://www.w3.org/1999/xlink" viewBox="0 0 20 20" version="1.1">
  <path d="M15.3380134,3.46196518 C14.6753043,3.46196518 14.1380316,3.99919816 14.1380316,4.66194692 C14.1380316,5.32469569 14.6753043,5.86196836 15.3380134,5.86196836 C16.0007621,5.86196836 16.5379951,5.32469569 16.5379951,4.66194692 C16.5379951,3.99919816 16.0007621,3.46196518 15.3380134,3.46196518 M9.99998015,13.3333333 C8.15904224,13.3333333 6.66666667,11.8409181 6.66666667,9.99998015 C6.66666667,8.15904224 8.15904224,6.66662697 9.99998015,6.66662697 C11.8409181,6.66662697 13.3333333,8.15904224 13.3333333,9.99998015 C13.3333333,11.8409181 11.8409181,13.3333333 9.99998015,13.3333333 M9.99998015,4.86482839 C7.16392671,4.86482839 4.86486808,7.16392671 4.86486808,9.99998015 C4.86486808,12.8360336 7.16392671,15.1350922 9.99998015,15.1350922 C12.8360733,15.1350922 15.1351319,12.8360336 15.1351319,9.99998015 C15.1351319,7.16392671 12.8360733,4.86482839 9.99998015,4.86482839 M9.99998015,0 C7.28416306,0 6.94361912,0.0114718731 5.87701279,0.0601380197 C4.81258969,0.108724776 4.0856937,0.277746353 3.44958032,0.524967202 C2.79203161,0.780524015 2.23435568,1.12241759 1.67838663,1.67838663 C1.12245728,2.23431598 0.780524015,2.79203161 0.525006897,3.44958032 C0.277786048,4.0856937 0.108724776,4.81258969 0.0601777148,5.87701279 C0.0115115681,6.94357942 0,7.28412336 0,9.99998015 C0,12.7158369 0.0115115681,13.0563412 0.0601777148,14.1229475 C0.108724776,15.1873706 0.277786048,15.9142666 0.525006897,16.55038 C0.780524015,17.2079287 1.12245728,17.7656443 1.67838663,18.3215737 C2.23435568,18.8775427 2.79203161,19.2194363 3.44958032,19.4749931 C4.0856937,19.722214 4.81258969,19.8912752 5.87701279,19.9398223 C6.94361912,19.9884884 7.28416306,20 9.99998015,20 C12.7158369,20 13.0563809,19.9884884 14.1229872,19.9398223 C15.1873706,19.8912752 15.9143063,19.722214 16.55038,19.4749931 C17.2079684,19.2194363 17.7656443,18.8775427 18.3215737,18.3215737 C18.8775427,17.7656443 19.2194363,17.2079684 19.4750328,16.55038 C19.722214,15.9142666 19.8912752,15.1873706 19.939862,14.1229475 C19.9884884,13.0563412 20,12.7158369 20,9.99998015 C20,7.28416306 19.9884884,6.94357942 19.939862,5.87701279 C19.8912752,4.81258969 19.722214,4.0856937 19.4750328,3.44958032 C19.2194363,2.79203161 18.8775427,2.23431598 18.3215737,1.67838663 C17.7656443,1.12241759 17.2079684,0.780524015 16.55038,0.524967202 C15.9143063,0.277746353 15.1873706,0.108724776 14.1229872,0.0601380197 C13.0563809,0.0114718731 12.7158369,0 9.99998015,0 M9.99998015,1.80179858 C12.6701082,1.80179858 12.9863985,1.81196052 14.0408184,1.86007094 C15.0158483,1.9045691 15.5453407,2.06747764 15.8977138,2.20438591 C16.3644483,2.38579234 16.697609,2.60252738 17.0475209,2.95243936 C17.3974726,3.30235134 17.614168,3.635512 17.7955744,4.10224654 C17.9324827,4.45461961 18.0954309,4.98415175 18.1398894,5.95910218 C18.1879998,7.01360151 18.1982014,7.32985208 18.1982014,9.99998015 C18.1982014,12.6701082 18.1879998,12.9863588 18.1398894,14.0408184 C18.0954309,15.0158086 17.9324827,15.545301 17.7955744,15.8976741 C17.614168,16.3644483 17.3974726,16.697609 17.0475209,17.0475209 C16.697609,17.3974329 16.3644483,17.6141283 15.8977138,17.7955744 C15.5453407,17.9324827 15.0158483,18.0953912 14.0408184,18.1398894 C12.9865573,18.1879998 12.6703067,18.1981617 9.99998015,18.1981617 C7.3296933,18.1981617 7.01348243,18.1879998 5.95914187,18.1398894 C4.98415175,18.0953912 4.45465931,17.9324827 4.10228624,17.7955744 C3.635512,17.6141283 3.30239103,17.3974329 2.95247906,17.0475209 C2.60252738,16.697609 2.38583204,16.3644483 2.2044256,15.8976741 C2.06747764,15.545301 1.9045691,15.0158086 1.86007094,14.0408581 C1.81196052,12.9863588 1.80179858,12.6701082 1.80179858,9.99998015 C1.80179858,7.32985208 1.81196052,7.01360151 1.86007094,5.95914187 C1.9045691,4.98415175 2.06747764,4.45461961 2.2044256,4.10224654 C2.38583204,3.635512 2.60252738,3.30235134 2.95243936,2.95247906 C3.30239103,2.60252738 3.635512,2.38579234 4.10228624,2.20438591 C4.45465931,2.06747764 4.98415175,1.9045691 5.95914187,1.86007094 C7.01360151,1.81196052 7.32989177,1.80179858 9.99998015,1.80179858" fill="#999999" />
</svg>
