<svg xmlns="http://www.w3.org/2000/svg" xmlns:xlink="http://www.w3.org/1999/xlink" viewBox="0 0 40 40" version="1.1">
	<path d="M28.6718672,20 L23.125,20 L23.125,16.2483203 C23.125,14.6666797 23.8998047,13.125 26.3842969,13.125 L28.9062422,13.125 L28.9062422,8.203125 C28.9062421,8.20312365 26.6174571,7.8125 24.4292969,7.8125 C19.8608951,7.8125 16.874998,10.5812446 16.8749922,15.5937353 L16.875,20 L11.796875,20 L11.796875,25.78125 L16.875,25.78125 L16.875,39.7569141 C7.31371094,38.2566406 0,29.9825781 0,20 C0,8.95429688 8.95429688,0 20,0 C31.0457031,0 40,8.95429688 40,20 C40,29.9825781 32.6862891,38.2566406 23.125,39.7569141 L23.125,25.78125 L27.7851562,25.78125 L28.671875,20 Z" id="Icon-Social-Facebook" fill="#999999"/>
</svg>
