<svg xmlns="http://www.w3.org/2000/svg" xmlns:xlink="http://www.w3.org/1999/xlink" viewBox="0 0 26 19" version="1.1">
  <path d="M25.4568174,2.84197096 C25.1578315,1.72328866 24.2767113,0.842382536 23.158029,0.543396661 C21.130404,1.13686838e-13 13,1.13686838e-13 13,1.13686838e-13 C13,1.13686838e-13 4.869596,1.13686838e-13 2.84197096,0.543396661 C1.72328866,0.842382536 0.842168516,1.72328866 0.543182641,2.84197096 C-1.77635684e-15,4.869596 -1.77635684e-15,9.10012841 -1.77635684e-15,9.10012841 C-1.77635684e-15,9.10012841 -1.77635684e-15,13.3306608 0.543182641,15.3580718 C0.842168516,16.4767541 1.72328866,17.3578743 2.84197096,17.6568602 C4.869596,18.2002568 13,18.2002568 13,18.2002568 C13,18.2002568 21.130404,18.2002568 23.158029,17.6568602 C24.2767113,17.3578743 25.1578315,16.4767541 25.4568174,15.3580718 C26,13.3306608 26,9.10012841 26,9.10012841 C26,9.10012841 26,4.869596 25.4568174,2.84197096 M10.3999786,13.0001926 L10.3999786,5.2000214 L17.1548764,9.10010701 L10.3999786,13.0001926 Z" fill="#999999" />
</svg>
